PathFileType	4	(X/Y/Z)	1_Data\scaling.trc
DataRate	CameraRate	NumFrames	NumMarkers	Units	OrigDataRate	OrigDataStartFrame	OrigNumFrames
120.000000	120.000000	4	71	mm	120.000000	435	697
Frame#	Time	Sternum			Neck			RShoulder			LShoulder			Xiphoid			Thoracic			RAsis			LAsis			RPsis			LPsis			RElbow			RElbowMedial			RShoulderAnterior			RShoulderPosterior			RWrist			RRadius			RUlna			LElbow			LElbowMedial			LShoulderAnterior			LShoulderPosterior			LWrist			LUlna			LRadius			LThighSuperior			LThighInferior			LThighLateral			LKneeLateral			LKneeMedial			LPatella			LShankSuperior			LShankInferior			LShankLateral			LAnkleLateral			LAnkleMedial			RThighSuperior			RThighInferior			RThighLateral			RKneeLateral			RPatella			RShankSuperior			RShankInferior			RShankLateral			RAnkleLateral			RankleMedial			RHeel			RToe			RMidfootMedial			RMidfootLateral			RHindfoot			RMidfootSuperior			RToeMedial			RToeLateral			LHeel			LToe			LMidfootMedial			LMidfootLateral			LHindfoot			LMidfootSuperior			LToeMedial			LToeLateral			RKneeMedial			Lumbar			Oglobal			Sacral			Xglobal			Yglobal			Zglobal			*68			*69			*70			
		X1	Y1	Z1	X2	Y2	Z2	X3	Y3	Z3	X4	Y4	Z4	X5	Y5	Z5	X6	Y6	Z6	X7	Y7	Z7	X8	Y8	Z8	X9	Y9	Z9	X10	Y10	Z10	X11	Y11	Z11	X12	Y12	Z12	X13	Y13	Z13	X14	Y14	Z14	X15	Y15	Z15	X16	Y16	Z16	X17	Y17	Z17	X18	Y18	Z18	X19	Y19	Z19	X20	Y20	Z20	X21	Y21	Z21	X22	Y22	Z22	X23	Y23	Z23	X24	Y24	Z24	X25	Y25	Z25	X26	Y26	Z26	X27	Y27	Z27	X28	Y28	Z28	X29	Y29	Z29	X30	Y30	Z30	X31	Y31	Z31	X32	Y32	Z32	X33	Y33	Z33	X34	Y34	Z34	X35	Y35	Z35	X36	Y36	Z36	X37	Y37	Z37	X38	Y38	Z38	X39	Y39	Z39	X40	Y40	Z40	X41	Y41	Z41	X42	Y42	Z42	X43	Y43	Z43	X44	Y44	Z44	X45	Y45	Z45	X46	Y46	Z46	X47	Y47	Z47	X48	Y48	Z48	X49	Y49	Z49	X50	Y50	Z50	X51	Y51	Z51	X52	Y52	Z52	X53	Y53	Z53	X54	Y54	Z54	X55	Y55	Z55	X56	Y56	Z56	X57	Y57	Z57	X58	Y58	Z58	X59	Y59	Z59	X60	Y60	Z60	X61	Y61	Z61	X62	Y62	Z62	X63	Y63	Z63	X64	Y64	Z64	X65	Y65	Z65	X66	Y66	Z66	X67	Y67	Z67	X68	Y68	Z68	X69	Y69	Z69	X70	Y70	Z70	X71	Y71	Z71	

436	3.625	533.2828369140625	1456.861450195312	-467.2297973632811	378.8161315917969	1572.3076171875	-457.1302185058593	428.9934387207031	1555.348022460938	-302.2236328124999	405.5986633300781	1553.66357421875	-602.8672485351561	560.589599609375	1303.348022460938	-457.2103271484374	290.5398254394531	1351.832763671875	-452.3633117675781	488.3695983886719	1039.952514648438	-323.7850036621093	501.9637145996094	1045.162719726562	-604.2069091796874	302.6456298828125	1067.392578125	-413.9573669433593	301.7555847167969	1066.931640625	-516.3464355468749	521.8710327148438	1300.224487304688	-101.0215759277343	553.0582275390625	1242.470947265625	-174.1810760498046	483.8407592773438	1498.819702148438	-311.3081970214843	370.3095703125	1502.745971679688	-283.5254821777343	787.6260375976562	1338.311401367188	-95.83219146728507	801.603515625	1312.566650390625	-141.6326293945312	789.310546875	1311.92333984375	-58.28455734252922	530.1094970703125	1294.958984375	-793.4986572265624	540.5287475585938	1236.935791015625	-720.8665771484374	467.6769409179688	1505.590942382812	-620.0463867187499	356.8265686035156	1494.715698242188	-633.0524902343749	797.81005859375	1321.328735351562	-775.6739501953124	791.756103515625	1285.546020507812	-806.8305053710936	804.5379638671875	1300.615966796875	-732.4758300781249	444.063720703125	874.018798828125	-659.16357421875	469.7794494628906	643.1677856445312	-640.6994018554688	543.7548217773438	747.6722412109375	-587.4400024414062	474.2889404296875	558.1786499023438	-643.391357421875	467.6604309082031	564.9833984375	-501.2010803222656	552.62158203125	554.6267700195312	-577.8231811523438	465.6275329589844	405.9144287109376	-661.278564453125	429.9201965332031	205.0303344726563	-643.4198608398438	488.3117980957031	294.4799499511719	-602.4478149414062	410.8337707519531	124.4469985961914	-643.6245727539062	439.6891174316406	125.3319091796875	-558.0995483398438	424.7918395996094	846.5960083007812	-287.2848510742187	440.1831665039062	610.416748046875	-311.0411376953124	528.994873046875	764.5350341796875	-340.0183715820312	432.907470703125	545.516845703125	-309.8975830078124	526.5552368164062	540.3015747070312	-350.6379394531249	420.1905212402344	448.8333740234375	-304.2677307128906	413.7745361328125	194.5150756835938	-335.9234619140625	479.9313659667969	318.8484802246094	-367.8793640136719	404.9991455078125	120.0188140869141	-339.4606628417969	436.8721923828125	137.46142578125	-425.7854614257812	332.0456237792969	79.70312500000003	-394.4881896972656	646.3238525390625	62.71980285644533	-351.6734313964844	553.091796875	49.27856063842776	-414.6134033203125	541.1727905273438	43.55150604248049	-295.496826171875	486.5356140136719	43.67382049560549	-309.7261962890625	514.566650390625	110.8539047241211	-364.4983215332031	597.9912109375	50.18128967285158	-403.9584045410156	588.8400268554688	48.38676834106447	-300.9744262695312	341.5247497558594	83.22066497802739	-590.9549560546875	648.8301391601562	73.95056152343754	-642.7406616210938	555.5942993164062	50.75718307495121	-578.4039306640625	541.9168090820312	47.191577911377	-694.8374633789062	487.880126953125	46.54997253417973	-680.0731201171875	523.5360107421875	112.6503143310547	-625.548095703125	597.38134765625	51.51872253417972	-586.8106079101562	586.1969604492188	56.91570663452153	-690.1060180664062	476.8046875	543.2545166015625	-446.1363830566406	314.1639404296875	1169.30810546875	-460.7113952636718	0	0	0	302.2006225585938	1067.162109375	-465.1519165039062	200	0	0	0	1.224646799147353e-14	-200	0	200	1.224646799147353e-14	nan	nan	nan	nan	nan	nan	nan	nan	nan	
437	3.633333333333333	533.2592163085938	1456.810791015625	-467.2746276855468	378.8438110351562	1572.286865234375	-457.1553649902343	428.9952697753906	1555.3759765625	-302.2646484374999	405.5997619628906	1553.659423828125	-602.8845825195311	560.5779418945312	1303.374877929688	-457.2319641113281	290.5763244628906	1351.842163085938	-452.4583435058593	488.3694458007812	1039.952758789062	-323.7842102050781	502.0007019042969	1045.13623046875	-604.1442871093749	302.6534118652344	1067.392822265625	-413.9829101562499	301.7517395019531	1066.963989257812	-516.3391113281249	521.9096069335938	1300.248779296875	-101.067153930664	553.3013916015625	1242.658813476562	-174.1861724853515	483.8441467285156	1498.823486328125	-311.3686523437499	370.33154296875	1502.79541015625	-283.4703063964843	787.6256103515625	1338.366821289062	-95.71751403808585	801.6239624023438	1312.6103515625	-141.7671661376952	789.3343505859375	1311.928588867188	-58.34744644165031	530.111083984375	1294.885009765625	-793.4392089843749	540.5099487304688	1236.860595703125	-720.8746948242186	467.6966857910156	1505.575561523438	-620.0729980468749	356.5291442871094	1494.690673828125	-633.1845703124999	797.86181640625	1321.283325195312	-775.7528076171874	791.7037353515625	1285.301147460938	-806.7960205078124	804.6043701171875	1300.366943359375	-732.6640624999999	444.1222839355469	874.0126953125	-659.1666259765625	469.7901611328125	643.161376953125	-640.681884765625	543.7549438476562	747.65576171875	-587.4160766601562	474.3258361816406	558.159912109375	-643.2752685546875	467.6700744628906	564.9935913085938	-501.1879882812499	552.6375122070312	554.6364135742188	-577.8045654296875	465.6187438964844	405.8822326660157	-661.2623901367188	429.6361083984375	204.8704528808594	-643.4887084960938	488.3168029785156	294.4712524414063	-602.4122314453125	410.8307800292969	124.4660034179688	-643.6475830078125	439.6786804199219	125.3280258178711	-558.117431640625	424.7582397460938	846.6051635742188	-287.2558898925781	440.1652526855469	610.4109497070312	-311.0253601074218	528.9614868164062	764.5474243164062	-340.0066833496093	432.8619079589844	545.524658203125	-309.8824462890624	526.5523681640625	540.3013305664062	-350.6359252929687	420.1744689941406	448.8393249511719	-304.2825012207031	413.8076782226562	194.5044250488282	-335.9473876953125	479.8980712890625	318.8343200683594	-367.9070129394531	405.005859375	120.0204162597656	-339.4805603027344	436.8690795898438	137.4643859863282	-425.7839050292969	331.9552307128906	79.58374023437503	-394.8811950683594	646.3013305664062	62.74621582031252	-351.6444396972656	553.0202026367188	49.43629837036136	-414.7667541503906	541.156982421875	43.48386383056643	-295.5526428222656	486.5252685546875	43.67245864868166	-309.7327880859375	514.4779052734375	110.8123168945313	-364.4115295410156	597.97412109375	50.17995452880862	-403.9580383300781	588.8370971679688	48.37876129150393	-301.00048828125	341.5094909667969	83.21997833251957	-590.9470825195312	648.82958984375	73.95049285888676	-642.7423706054688	555.5969848632812	50.76000595092777	-578.4076538085938	541.90380859375	47.19596862792973	-694.821044921875	487.8522338867188	46.55113220214848	-680.0513916015625	523.5552978515625	112.6858749389649	-625.5360107421875	597.3206787109375	51.57338714599613	-586.8867797851562	586.2205810546875	56.92918014526371	-690.1276245117188	476.8033142089844	543.2538452148438	-446.1356201171874	314.1994323730469	1169.3203125	-460.7157897949218	0	0	0	302.2025756835938	1067.178466796875	-465.1610107421874	200	0	0	0	1.224646799147353e-14	-200	0	200	1.224646799147353e-14	nan	nan	nan	nan	nan	nan	nan	nan	nan	
438	3.641666666666667	533.2757568359375	1456.853149414062	-467.3025512695311	378.8345642089844	1572.303588867188	-457.210479736328	429.0075988769531	1555.387573242188	-302.3307800292968	405.6291809082031	1553.6455078125	-602.9327392578124	560.5642700195312	1303.36767578125	-457.2174682617187	290.5789184570312	1351.818725585938	-452.4588623046874	488.3512878417969	1039.963012695312	-323.7937927246093	501.9999084472656	1045.13330078125	-604.1372680664061	302.6547241210938	1067.392211914062	-413.9849853515624	301.748046875	1066.959716796875	-516.3376464843749	521.9271240234375	1300.25146484375	-101.0801544189452	553.090576171875	1242.379638671875	-174.3058624267577	483.8223266601562	1498.868530273438	-311.3707580566405	370.3284606933594	1502.816650390625	-283.4814453124999	787.6688232421875	1338.378173828125	-95.79935455322257	801.5889282226562	1312.687133789062	-141.689468383789	789.3448486328125	1311.953125	-58.41579055786125	530.1520385742188	1294.82666015625	-793.4272460937499	540.5234985351562	1236.861206054688	-720.8308715820311	467.6852416992188	1505.534423828125	-620.1156005859374	356.7357788085938	1494.68701171875	-632.9636230468749	797.835693359375	1321.142944335938	-775.6105957031249	791.8402099609375	1285.493896484375	-806.8161010742186	804.5523681640625	1300.445068359375	-732.5452270507811	444.1377563476562	874.0099487304688	-659.1522827148438	469.8004760742188	643.1561279296875	-640.6627197265625	543.8478393554688	747.6583251953125	-587.3782348632812	474.3807067871094	558.1674194335938	-643.2969970703125	467.6473083496094	564.995849609375	-501.1874389648437	552.6212158203125	554.6381225585938	-577.798583984375	465.6156616210938	405.8786926269532	-661.2589111328125	429.9158935546875	204.9919738769532	-643.344970703125	488.29296875	294.4675903320313	-602.3966064453125	410.7973022460938	124.4412002563477	-643.6251220703125	439.6767272949219	125.3289871215821	-558.1184692382812	424.7450256347656	846.5868530273438	-287.2923278808593	440.1508483886719	610.4135131835938	-311.0509948730468	528.9281005859375	764.5498046875	-339.9470825195312	432.8750915527344	545.523681640625	-309.9150695800781	526.5236206054688	540.2987670898438	-350.6327209472656	420.0793762207031	448.9191284179688	-304.2611694335938	413.7900085449219	194.5107116699219	-335.9565734863281	479.9014892578125	318.8034362792969	-367.9242248535156	405.0004577636719	120.0420684814453	-339.4786376953125	436.8691101074219	137.463363647461	-425.78369140625	331.9477233886719	79.55865478515628	-394.8949279785156	646.29345703125	62.76065444946291	-351.6073913574219	552.7476806640625	49.48723983764651	-414.7164306640625	541.128173828125	43.4052314758301	-295.5987243652344	486.5371704101562	43.65020751953127	-309.7615966796875	514.50634765625	110.8418197631836	-364.4407348632812	597.9669189453125	50.17440414428713	-403.9386901855469	588.8914184570312	48.39297485351565	-301.0191650390625	341.509765625	83.22128295898442	-590.9447631835938	648.8165893554688	73.9507217407227	-642.7272338867188	555.594482421875	50.75558090209964	-578.4066772460938	541.9170532226562	47.19248199462895	-694.8372802734375	487.834716796875	46.52449417114262	-680.0303344726562	523.5299072265625	112.6785507202149	-625.553466796875	597.3146362304688	51.57957458496097	-586.884765625	586.2127685546875	56.84244155883793	-690.0098266601562	476.7760620117188	543.2507934570312	-446.1336059570312	314.1867370605469	1169.31982421875	-460.7348632812499	0	0	0	302.2013854980469	1067.176025390625	-465.1613159179687	200	0	0	0	1.224646799147353e-14	-200	0	200	1.224646799147353e-14	nan	nan	nan	nan	nan	nan	nan	nan	nan	
439	3.65	533.2490234375	1456.801635742188	-467.3490295410155	378.8153686523438	1572.299926757812	-457.2246093749999	428.9857788085938	1555.41015625	-302.3904418945311	405.6072387695312	1553.635986328125	-602.9649658203124	560.5770263671875	1303.389404296875	-457.2502746582031	290.5946960449219	1351.819946289062	-452.4853210449218	488.3358764648438	1039.9599609375	-323.7547912597656	502.0147705078125	1045.107177734375	-604.1072387695311	302.6161499023438	1067.41748046875	-413.9783020019531	301.8130798339844	1066.955444335938	-516.3850097656249	521.9408569335938	1300.28955078125	-101.109031677246	553.3377075195312	1242.623779296875	-174.2517089843749	483.845458984375	1498.8408203125	-311.4365844726561	370.296142578125	1502.776245117188	-283.6204833984374	787.70068359375	1338.394775390625	-95.90679931640616	801.615966796875	1312.68212890625	-141.8566741943359	789.3834228515625	1311.984375	-58.48245620727531	530.1337280273438	1294.7353515625	-793.3675537109374	540.5309448242188	1236.819702148438	-720.7835083007811	467.7203369140625	1505.567016601562	-620.1638183593749	356.5745544433594	1494.66455078125	-632.9952392578124	797.8661499023438	1321.116577148438	-775.6826171874999	791.821044921875	1285.226684570312	-806.7070922851561	804.6538696289062	1300.242797851562	-732.5761108398436	444.1369934082031	874.0027465820312	-659.1229858398438	469.8008728027344	643.1336669921875	-640.6565551757812	543.7785034179688	747.6627197265625	-587.3665161132812	474.35595703125	558.172607421875	-643.2557983398438	467.6432495117188	564.9930419921875	-501.1929321289062	552.6234130859375	554.6348876953125	-577.798583984375	465.653564453125	405.8815917968751	-661.24072265625	429.6185913085938	204.847396850586	-643.4429931640625	488.3126831054688	294.4804077148438	-602.3809814453125	410.8314514160156	124.4457626342774	-643.6221923828125	439.6850280761719	125.3457565307617	-558.0911254882812	424.7306213378906	846.5974731445312	-287.2996520996093	440.1061096191406	610.419677734375	-311.0385437011718	528.9154663085938	764.5625610351562	-339.9582824707031	432.8508605957031	545.5459594726562	-309.9312744140624	526.5042114257812	540.3273315429688	-350.6111450195312	420.0929260253906	448.8838806152344	-304.2655334472656	413.7708435058594	194.5155944824219	-335.9377136230469	479.8964233398438	318.8127136230469	-367.9108276367188	404.998046875	120.0287246704102	-339.476806640625	436.8985595703125	137.4615478515625	-425.7635498046875	331.9552001953125	79.57423400878909	-394.8923950195312	646.3296508789062	62.71190643310549	-351.6589050292969	552.8539428710938	49.62988281250003	-414.927734375	541.1741943359375	43.57785415649416	-295.5238037109375	486.528564453125	43.64599227905276	-309.7428283691406	515.0858764648438	110.2735748291016	-365.4125671386719	597.97314453125	50.17870712280276	-403.9571533203125	588.8363647460938	48.39828872680666	-300.9849853515625	341.5068969726562	83.23042297363286	-590.9310913085938	648.8200073242188	73.94123077392582	-642.7357177734375	555.5804443359375	50.74239349365238	-578.4404907226562	541.9189453125	47.19367218017582	-694.8397216796875	487.8382263183594	46.52098846435551	-680.0347290039062	523.5556030273438	112.6867599487305	-625.5368041992188	597.3760986328125	51.55348587036136	-586.8067016601562	586.172119140625	56.88760375976567	-690.0806884765625	476.7579345703125	543.27880859375	-446.1131896972656	314.2030029296875	1169.32958984375	-460.7288208007812	0	0	0	302.214599609375	1067.1865234375	-465.1816406249999	200	0	0	0	1.224646799147353e-14	-200	0	200	1.224646799147353e-14	nan	nan	nan	nan	nan	nan	nan	nan	nan	
